<?xml version="1.0" encoding="UTF-8" standalone="no"?>
<!DOCTYPE svg PUBLIC "-//W3C//DTD SVG 1.1//EN" "http://www.w3.org/Graphics/SVG/1.1/DTD/svg11.dtd">
<svg version="1.1" xmlns="http://www.w3.org/2000/svg" xmlns:xlink="http://www.w3.org/1999/xlink" preserveAspectRatio="xMidYMid meet" viewBox="0 0 450 450" width="450" height="450"><defs><path d="M332.13 106.22C342.6 118.79 332.13 137.65 332.13 137.65C331.57 138.35 328.78 141.84 323.75 148.13L315.37 141.84L315.37 139.75C319.56 109.02 325.14 97.84 332.13 106.22Z" id="b63X9pFhbC"></path><path d="M-291.51 825.8C-291.51 825.8 -291.51 825.8 -291.51 825.8C-291.51 1187 -291.51 1387.66 -291.51 1427.8C-291.51 1427.8 -291.51 1427.8 -291.51 1427.8C189.69 1427.8 457.03 1427.8 510.49 1427.8C510.49 1427.8 510.49 1427.8 510.49 1427.8C510.49 1066.6 510.49 865.93 510.49 825.8C510.49 825.8 510.49 825.8 510.49 825.8C29.29 825.8 -238.04 825.8 -291.51 825.8Z" id="d8eOFHRT2"></path><path d="M315.37 135.56C319.56 139.75 332.13 141.84 330.03 150.22C327.94 158.6 283.94 185.84 283.94 185.84C284.36 183.74 286.45 173.27 290.22 154.41C304.19 139.05 312.57 132.76 315.37 135.56Z" id="a1FWyMNcY8"></path><path d="M315.37 135.56C319.56 139.75 332.13 141.84 330.03 150.22C327.94 158.6 283.94 185.84 283.94 185.84C284.36 183.74 286.45 173.27 290.22 154.41C304.19 139.05 312.57 132.76 315.37 135.56Z" id="ajDaPjctD"></path><path d="M170.8 169.08C170.8 169.08 168.7 206.79 181.28 204.7C193.85 202.6 187.56 171.17 187.56 171.17C187.42 169.92 186.72 163.63 185.47 152.32L170.8 152.32C170.8 162.37 170.8 167.96 170.8 169.08Z" id="a2ecm1vQYt"></path><path d="M151.94 305.26C145.66 307.36 112.14 326.22 107.95 345.07C105.99 347.59 96.21 360.16 78.61 382.78C87.41 394.1 92.3 400.38 93.28 401.64C93.28 401.64 160.32 330.41 179.18 324.12C198.04 317.83 216.89 286.41 216.89 286.41C214.24 285.57 200.97 281.38 177.09 273.84C164.51 293.39 156.13 303.87 151.94 305.26Z" id="a6Y6V1ko6W"></path><path d="M359.36 257.08C353.08 282.22 292.32 334.6 292.32 334.6C292.18 335.43 291.48 339.62 290.22 347.17L267.18 351.36L256.7 340.88C257.96 337.11 258.66 335.02 258.8 334.6C258.8 334.6 283.94 311.55 286.03 303.17C288.13 294.79 311.18 261.27 321.65 259.17C320.67 258.61 315.79 255.82 306.99 250.79L325.84 225.65C352.38 229.84 363.55 240.31 359.36 257.08Z" id="apYZhENDG"></path><path d="M80.18 372.31C67.61 374.4 59.23 376.5 59.23 384.88C59.23 393.26 69.71 451.93 82.28 447.73C94.85 443.54 84.37 424.69 84.37 424.69C84.37 424.69 90.66 407.93 94.85 405.83C99.04 403.74 99.04 393.26 94.85 393.26C90.66 393.26 82.28 386.98 84.37 382.78C84.37 382.78 92.76 370.21 80.18 372.31Z" id="b1GrgrwFse"></path><path d="M254.61 336.69C246.23 347.17 242.04 355.55 250.42 361.83C258.8 368.12 288.13 382.78 288.13 382.78C288.13 382.78 319.56 389.07 315.37 374.4C315.37 374.4 294.41 363.93 294.41 355.55C294.41 347.17 294.41 332.5 288.13 336.69C281.84 340.88 262.99 342.98 262.99 336.69C262.99 336.69 262.99 326.22 254.61 336.69Z" id="f584bcEsP"></path><path d="M195.94 225.65C195.94 225.65 158.23 263.36 168.7 275.93C179.18 288.5 202.23 311.55 210.61 305.26C218.99 298.98 244.13 250.79 244.13 250.79C244.13 250.79 302.8 271.74 313.27 261.27C323.75 250.79 334.22 225.65 334.22 225.65C330.73 223.83 313.27 214.75 281.84 198.41L223.18 179.55C203.62 182.35 194.55 197.71 195.94 225.65Z" id="aor4nzs3"></path><path d="M304.89 9.85C318.78 9.85 330.03 21.1 330.03 34.99C330.03 48.87 318.78 60.13 304.89 60.13C291 60.13 279.75 48.87 279.75 34.99C279.75 21.1 291 9.85 304.89 9.85Z" id="a7Purvkbqr"></path><path d="M267.18 62.23C262.99 64.32 296.51 85.27 296.51 85.27C296.51 85.27 296.51 58.04 306.99 51.75C305.59 50.77 298.6 45.88 286.03 37.08C276.26 52.45 269.97 60.83 267.18 62.23Z" id="eh2vyN0E7"></path><path d="M244.13 66.42C237.85 83.18 223.18 114.6 225.27 135.56C227.37 156.51 231.56 152.32 225.27 158.6C218.99 164.89 214.8 160.7 216.89 169.08C218.99 177.46 221.08 177.46 218.99 181.65C216.89 185.84 244.13 200.51 267.18 202.6C269.48 202.81 287.92 204.49 290.22 204.7C290.22 204.7 290.22 166.98 294.41 158.6C298.6 150.22 306.99 133.46 306.99 127.18C306.99 125.51 306.99 112.21 306.99 110.54C306.99 99.48 304.1 88.6 298.6 78.99C298.6 78.99 298.6 78.99 298.6 78.99C298.6 78.99 286.03 60.13 283.94 60.13C283.94 60.13 250.42 49.65 244.13 66.42Z" id="a1sxJxku19"></path><path d="M172.9 95.75C164.51 116.7 160.32 158.6 168.7 158.6C177.09 158.6 187.56 162.79 189.66 158.6C191.75 154.41 200.13 112.51 202.23 112.51C204.32 112.51 267.18 106.22 267.18 106.22C267.18 106.22 294.41 72.7 258.8 68.51C258.8 68.51 181.28 74.8 172.9 95.75Z" id="dfMx1Ffwx"></path><path d="M320.91 27.23C329.25 37.3 342.82 18.8 340.74 14.85C338.65 10.9 331.3 15.02 318.69 10.9C306.09 6.78 281.81 -1.61 277.74 25.77C273.68 53.15 283.36 50.28 283.36 50.28C283.36 50.28 287.8 26.02 291.81 32.99C292.08 33.45 293.42 35.78 295.82 39.96L299.31 40.81L305.9 28.76C310.35 21.03 315.35 20.52 320.91 27.23Z" id="a3wY0M0WsQ"></path></defs><g><g><g><use xlink:href="#b63X9pFhbC" opacity="1" fill="#9f616a" fill-opacity="1"></use><g><use xlink:href="#b63X9pFhbC" opacity="1" fill-opacity="0" stroke="#000000" stroke-width="1" stroke-opacity="0"></use></g></g><g><use xlink:href="#d8eOFHRT2" opacity="1" fill="#000000" fill-opacity="0"></use><g><use xlink:href="#d8eOFHRT2" opacity="1" fill-opacity="0" stroke="#000000" stroke-width="1" stroke-opacity="0"></use></g></g><g><use xlink:href="#a1FWyMNcY8" opacity="1" fill="#f9a826" fill-opacity="1"></use><g><use xlink:href="#a1FWyMNcY8" opacity="1" fill-opacity="0" stroke="#000000" stroke-width="1" stroke-opacity="0"></use></g></g><g><use xlink:href="#ajDaPjctD" opacity="1" fill="#000000" fill-opacity="1"></use><g><use xlink:href="#ajDaPjctD" opacity="1" fill-opacity="0" stroke="#000000" stroke-width="1" stroke-opacity="0"></use></g></g><g><use xlink:href="#a2ecm1vQYt" opacity="1" fill="#9f616a" fill-opacity="1"></use><g><use xlink:href="#a2ecm1vQYt" opacity="1" fill-opacity="0" stroke="#000000" stroke-width="1" stroke-opacity="0"></use></g></g><g><use xlink:href="#a6Y6V1ko6W" opacity="1" fill="#9f616a" fill-opacity="1"></use><g><use xlink:href="#a6Y6V1ko6W" opacity="1" fill-opacity="0" stroke="#000000" stroke-width="1" stroke-opacity="0"></use></g></g><g><use xlink:href="#apYZhENDG" opacity="1" fill="#9f616a" fill-opacity="1"></use><g><use xlink:href="#apYZhENDG" opacity="1" fill-opacity="0" stroke="#000000" stroke-width="1" stroke-opacity="0"></use></g></g><g><use xlink:href="#b1GrgrwFse" opacity="1" fill="#2f2e41" fill-opacity="1"></use><g><use xlink:href="#b1GrgrwFse" opacity="1" fill-opacity="0" stroke="#000000" stroke-width="1" stroke-opacity="0"></use></g></g><g><use xlink:href="#f584bcEsP" opacity="1" fill="#2f2e41" fill-opacity="1"></use><g><use xlink:href="#f584bcEsP" opacity="1" fill-opacity="0" stroke="#000000" stroke-width="1" stroke-opacity="0"></use></g></g><g><use xlink:href="#aor4nzs3" opacity="1" fill="#2f2e41" fill-opacity="1"></use><g><use xlink:href="#aor4nzs3" opacity="1" fill-opacity="0" stroke="#000000" stroke-width="1" stroke-opacity="0"></use></g></g><g><use xlink:href="#a7Purvkbqr" opacity="1" fill="#9f616a" fill-opacity="1"></use><g><use xlink:href="#a7Purvkbqr" opacity="1" fill-opacity="0" stroke="#000000" stroke-width="1" stroke-opacity="0"></use></g></g><g><use xlink:href="#eh2vyN0E7" opacity="1" fill="#9f616a" fill-opacity="1"></use><g><use xlink:href="#eh2vyN0E7" opacity="1" fill-opacity="0" stroke="#000000" stroke-width="1" stroke-opacity="0"></use></g></g><g><use xlink:href="#a1sxJxku19" opacity="1" fill="#f9a826" fill-opacity="1"></use><g><use xlink:href="#a1sxJxku19" opacity="1" fill-opacity="0" stroke="#000000" stroke-width="1" stroke-opacity="0"></use></g></g><g><use xlink:href="#dfMx1Ffwx" opacity="1" fill="#f9a826" fill-opacity="1"></use><g><use xlink:href="#dfMx1Ffwx" opacity="1" fill-opacity="0" stroke="#000000" stroke-width="1" stroke-opacity="0"></use></g></g><g><use xlink:href="#a3wY0M0WsQ" opacity="1" fill="#2f2e41" fill-opacity="1"></use><g><use xlink:href="#a3wY0M0WsQ" opacity="1" fill-opacity="0" stroke="#000000" stroke-width="1" stroke-opacity="0"></use></g></g></g></g></svg>